<?xml version="1.0" encoding="UTF-8"?>
<svg width="1200pt" height="1200pt" version="1.1" viewBox="0 0 1200 1200" xmlns="http://www.w3.org/2000/svg">
 <g>
  <path d="m257.14 685.71c-142.02 0-257.14 115.12-257.14 257.14 0 142.02 115.12 257.14 257.14 257.14 142.02 0 257.14-115.12 257.14-257.14-0.15234-141.95-115.19-256.99-257.14-257.14zm141.43 283.63-106.2 147.96c-8.0586 11.578-21.277 18.473-35.387 18.453-14.105-0.023438-27.305-6.957-35.328-18.562l-105.94-147.84c-11.355-15.84-11.355-37.152 0-52.992l106.2-147.98c8.0586-11.582 21.277-18.477 35.387-18.453 14.105 0.019531 27.305 6.957 35.328 18.559l106.11 147.86c11.305 15.875 11.238 37.188-0.17188 52.992z"/>
  <path d="m150.49 941.34c-0.66016 0.91406-0.66016 2.1484 0 3.0625l106.2 147.86 107.14-147.96c0.66016-0.91406 0.66016-2.1484 0-3.0625l-106.2-147.86z"/>
  <path d="m942.86 0c-142.02 0-257.14 115.12-257.14 257.14 0 142.02 115.12 257.14 257.14 257.14 142.02 0 257.14-115.12 257.14-257.14-0.15234-141.95-115.19-256.99-257.14-257.14zm143.91 291.43-129.06 130.71c-4.0273 4.0742-9.5156 6.3711-15.246 6.3711-5.7305 0-11.219-2.2969-15.246-6.3711l-129.04-130.71c-36.629-37.473-36.629-97.336 0-134.81 17.645-17.93 41.746-28.027 66.898-28.027 25.156 0 49.258 10.098 66.902 28.027l10.477 10.715 10.438-10.715c17.684-18.004 41.879-28.117 67.113-28.051 25.102-0.003906 49.145 10.098 66.707 28.031 36.684 37.445 36.684 97.355 0 134.8z"/>
  <path d="m1020 171.43c-13.703 0.015624-26.824 5.5273-36.43 15.301l-25.715 26.184c-8.5469 8.2305-22.074 8.2305-30.621 0l-25.715-26.293c-9.5898-9.7383-22.684-15.223-36.352-15.223s-26.766 5.4844-36.355 15.223c-20.289 20.734-20.289 53.883 0 74.613l113.77 115.33 113.81-115.33c20.223-20.758 20.223-53.852 0-74.613-9.5859-9.7617-22.707-15.238-36.387-15.191z"/>
  <path d="m942.45 822.86-95.594 94.289c-7.6289 7.4609-11.934 17.684-11.934 28.359 0 10.676 4.3047 20.898 11.934 28.359 16.312 15.832 42.254 15.832 58.566 0l21.855-21.684c0.25781-0.25781 0.62109-0.34375 0.87891-0.57813 1.7656-1.6758 3.8125-3.0234 6.043-3.9883 2.5859-1.0859 5.3594-1.6445 8.1641-1.6484 5.3203-0.054688 10.445 1.9883 14.273 5.6797 0.25781 0.21094 0.57812 0.29688 0.83594 0.53516l21.984 21.793c16.484 15.273 41.953 15.273 58.438 0 7.6328-7.4688 11.934-17.695 11.934-28.371 0-10.68-4.3008-20.906-11.934-28.371z"/>
  <path d="m942.86 685.71c-142.02 0-257.14 115.12-257.14 257.14 0 142.02 115.12 257.14 257.14 257.14 142.02 0 257.14-115.12 257.14-257.14-0.15234-141.95-115.19-256.99-257.14-257.14zm125.29 318.66c-27.969 27.426-71.109 32.062-104.27 11.207v55.844h43.672c11.832 0 21.43 9.5938 21.43 21.426 0 11.836-9.5977 21.43-21.43 21.43h-128.98c-11.832 0-21.426-9.5938-21.426-21.43 0-11.832 9.5938-21.426 21.426-21.426h42.449v-55.91c-33.176 20.703-76.195 16.105-104.25-11.141-15.812-15.531-24.723-36.766-24.723-58.93 0-22.164 8.9102-43.398 24.723-58.93l110.66-109c8.332-8.168 21.668-8.168 30 0l110.66 108.98c15.809 15.531 24.715 36.766 24.715 58.93 0 22.16-8.9062 43.395-24.715 58.926z"/>
  <path d="m321.43 214.29c-0.96484 0.12891-3.1094 0.40625-4.0508 0.40625-6.9922 0.003906-13.547-3.4062-17.559-9.1328-4.0117-5.7266-4.9766-13.051-2.5859-19.621 1.7734-4.6367 2.7109-9.5469 2.7656-14.508 0-23.672-19.188-42.859-42.855-42.859-23.672 0-42.859 19.188-42.859 42.859 0.058594 4.9609 0.99219 9.8711 2.7656 14.508 2.4648 6.7852 1.3438 14.359-2.9805 20.141-4.293 5.8203-11.254 9.0508-18.469 8.5703-0.60156-0.019532-2.7461-0.36328-3.2578-0.36328-23.602 0.28516-42.531 19.594-42.344 43.195 0.19141 23.602 19.426 42.609 43.027 42.516 23.602-0.09375 42.684-19.25 42.688-42.852 0-11.836 9.5938-21.43 21.43-21.43 11.832 0 21.426 9.5938 21.426 21.43 0 23.668 19.188 42.855 42.859 42.855 23.668 0 42.855-19.188 42.855-42.855 0-23.672-19.188-42.859-42.855-42.859z"/>
  <path d="m257.14 0c-142.02 0-257.14 115.12-257.14 257.14 0 142.02 115.12 257.14 257.14 257.14 142.02 0 257.14-115.12 257.14-257.14-0.15234-141.95-115.19-256.99-257.14-257.14zm64.285 342.86c-15.266-0.11719-30.215-4.3594-43.266-12.277v55.137h43.266c11.832 0 21.426 9.5938 21.426 21.43 0 11.832-9.5938 21.426-21.426 21.426h-128.57c-11.832 0-21.426-9.5938-21.426-21.426 0-11.836 9.5938-21.43 21.426-21.43h42.453v-54.664c-12.859 7.6172-27.508 11.691-42.453 11.805-43.195 0.042969-79.672-32.062-85.113-74.914-5.4414-42.852 21.852-83.055 63.688-93.812v-2.6992c0-47.34 38.375-85.715 85.715-85.715 47.336 0 85.711 38.375 85.711 85.715v2.6992c41.836 10.758 69.133 50.961 63.688 93.812-5.4414 42.852-41.918 74.957-85.113 74.914z"/>
 </g>
</svg>
